<svg width="801" height="173" viewBox="0 0 801 173" fill="none" xmlns="http://www.w3.org/2000/svg"><path d="M236.784 136h-21.632l33.792-94.72h20.224L302.832 136h-22.016l-6.656-19.968h-30.592zm19.584-57.6-6.784 20.224h18.688L261.488 78.4c-1.024-3.2-2.176-6.912-2.56-9.216-.384 2.176-1.408 5.76-2.56 9.216M350.67 72h19.712v64h-18.56l-1.28-7.168c-3.968 5.248-11.904 8.832-19.584 8.832-14.592 0-23.552-9.728-23.552-25.472V72h19.712v33.024c0 10.496 3.584 15.104 11.648 15.104 8.448 0 11.904-4.352 11.904-14.848zm60.36 64h-19.712V88.384h-12.16V72h12.16V52.16h19.712V72h12.16v16.384h-12.16zm16.938-32.128c0-20.224 14.848-33.792 35.328-33.792 20.352 0 35.2 13.568 35.2 33.792s-14.848 33.664-35.2 33.664c-20.48 0-35.328-13.44-35.328-33.664m19.84-.128c0 9.728 6.272 16.128 15.488 16.128 9.088 0 15.36-6.4 15.36-16.128 0-9.6-6.272-16-15.36-16-9.216 0-15.488 6.4-15.488 16m59.3-34.944c0-17.152 14.464-29.312 34.816-29.312s33.152 11.264 33.152 29.184h-20.608c0-6.656-4.992-10.752-12.8-10.752-8.448 0-13.824 3.84-13.824 10.112 0 5.76 2.944 8.576 9.6 9.984l14.208 2.944c16.896 3.456 24.96 11.52 24.96 26.496 0 18.304-14.336 30.208-36.096 30.208-21.12 0-34.816-11.392-34.816-29.184h20.608c0 6.912 5.12 10.752 14.336 10.752 9.344 0 15.232-3.712 15.232-9.728 0-5.248-2.432-7.936-8.704-9.216l-14.464-2.944c-16.896-3.456-25.6-13.056-25.6-28.544M630.42 72h19.712v64h-18.56l-1.28-7.168c-3.968 5.248-11.904 8.832-19.584 8.832-14.592 0-23.552-9.728-23.552-25.472V72h19.712v33.024c0 10.496 3.584 15.104 11.648 15.104 8.448 0 11.904-4.352 11.904-14.848zm53.064 64h-18.56V39.488h19.712v39.936c3.84-5.76 12.288-9.6 21.504-9.6 17.92 0 29.312 13.952 29.312 34.816 0 19.84-12.672 33.024-30.848 33.024-8.96 0-16.64-3.968-20.096-9.856zm1.28-32.384c0 9.6 6.4 16 15.616 16 9.344 0 15.232-6.528 15.232-16s-5.888-16-15.232-16c-9.216 0-15.616 6.4-15.616 16m57.427 12.16h18.688c.256 4.48 3.584 7.168 9.6 7.168 6.144 0 8.96-2.176 8.96-5.504 0-1.92-1.024-3.968-5.76-4.992l-11.776-2.56c-11.776-2.56-17.536-7.68-17.536-18.944 0-13.312 11.392-20.992 26.752-20.992 14.848 0 25.216 8.704 25.216 21.632h-18.688c0-4.352-2.688-7.296-7.424-7.296-4.48 0-7.296 2.304-7.296 5.76 0 2.944 2.432 4.608 6.912 5.632l11.904 2.56c10.496 2.304 16.256 7.168 16.256 17.408 0 13.696-11.648 22.016-28.288 22.016-16.896 0-27.52-8.96-27.52-21.888" fill="#000"/><path fill-rule="evenodd" clip-rule="evenodd" d="M200 137h-56.25c0-24.162-19.588-43.75-43.75-43.75S56.25 112.838 56.25 137H0C0 81.772 44.772 37 100 37s100 44.772 100 100" fill="url(#a)"/><defs><linearGradient id="a" x1="100" y1="37" x2="100" y2="137" gradientUnits="userSpaceOnUse"><stop stop-color="#2642EB"/><stop offset="1" stop-color="#F3ACFF"/></linearGradient></defs></svg>