<svg width="901" height="131" viewBox="0 0 901 131" fill="none" xmlns="http://www.w3.org/2000/svg">
<path d="M237.808 99H222.32V3.768H237.808V99ZM250.477 67.256C250.477 47.544 264.685 33.976 284.269 33.976C303.853 33.976 318.061 47.544 318.061 67.256C318.061 86.968 303.853 100.536 284.269 100.536C264.685 100.536 250.477 86.968 250.477 67.256ZM266.093 67.256C266.093 78.776 273.517 86.584 284.269 86.584C295.021 86.584 302.445 78.776 302.445 67.256C302.445 55.736 295.021 47.928 284.269 47.928C273.517 47.928 266.093 55.736 266.093 67.256ZM346.055 99H330.439V35.768H344.903L346.183 43.96C350.151 37.56 357.831 33.848 366.407 33.848C382.279 33.848 390.471 43.704 390.471 60.088V99H374.855V63.8C374.855 53.176 369.607 48.056 361.543 48.056C351.943 48.056 346.055 54.712 346.055 64.952V99ZM402.23 65.976C402.23 47.544 414.262 33.72 432.31 33.72C441.782 33.72 449.206 37.688 452.918 44.472L453.814 35.768H468.278V95.8C468.278 116.92 455.606 130.104 435.126 130.104C416.95 130.104 404.534 119.736 402.614 102.84H418.23C419.254 111.032 425.526 115.896 435.126 115.896C445.878 115.896 452.79 109.112 452.79 98.616V88.12C448.822 94.008 441.014 97.72 431.926 97.72C414.006 97.72 402.23 84.28 402.23 65.976ZM417.974 65.592C417.974 76.216 424.758 84.152 434.998 84.152C445.75 84.152 452.406 76.6 452.406 65.592C452.406 54.84 445.878 47.416 434.998 47.416C424.63 47.416 417.974 55.224 417.974 65.592ZM505.943 99H490.327V48.824H478.167V35.768H490.327V16.056H505.943V35.768H518.231V48.824H505.943V99ZM523.602 67.256C523.602 47.544 537.81 33.976 557.394 33.976C576.978 33.976 591.186 47.544 591.186 67.256C591.186 86.968 576.978 100.536 557.394 100.536C537.81 100.536 523.602 86.968 523.602 67.256ZM539.218 67.256C539.218 78.776 546.642 86.584 557.394 86.584C568.146 86.584 575.57 78.776 575.57 67.256C575.57 55.736 568.146 47.928 557.394 47.928C546.642 47.928 539.218 55.736 539.218 67.256ZM598.7 79.8H613.548C613.676 85.304 617.772 88.76 624.94 88.76C632.236 88.76 636.204 85.816 636.204 81.208C636.204 78.008 634.54 75.704 628.908 74.424L617.516 71.736C606.124 69.176 600.62 63.8 600.62 53.688C600.62 41.272 611.116 33.848 625.708 33.848C639.916 33.848 649.516 42.04 649.644 54.328H634.796C634.668 48.952 631.084 45.496 625.068 45.496C618.924 45.496 615.34 48.312 615.34 53.048C615.34 56.632 618.156 58.936 623.532 60.216L634.924 62.904C645.548 65.336 650.924 70.2 650.924 79.928C650.924 92.728 640.044 100.664 624.428 100.664C608.684 100.664 598.7 92.216 598.7 79.8ZM678.43 99H662.814V3.768H678.558V43.96C682.526 37.816 689.95 33.848 699.038 33.848C714.654 33.848 722.846 43.704 722.846 60.088V99H707.23V63.8C707.23 53.176 701.982 48.056 694.046 48.056C684.19 48.056 678.43 54.968 678.43 64.44V99ZM734.477 67.256C734.477 47.544 748.685 33.976 768.269 33.976C787.853 33.976 802.061 47.544 802.061 67.256C802.061 86.968 787.853 100.536 768.269 100.536C748.685 100.536 734.477 86.968 734.477 67.256ZM750.093 67.256C750.093 78.776 757.517 86.584 768.269 86.584C779.021 86.584 786.445 78.776 786.445 67.256C786.445 55.736 779.021 47.928 768.269 47.928C757.517 47.928 750.093 55.736 750.093 67.256ZM854.119 35.512V49.976H848.359C837.095 49.976 830.055 55.992 830.055 68.28V99H814.439V35.896H829.159L830.055 45.112C832.743 38.84 838.759 34.616 847.207 34.616C849.383 34.616 851.559 34.872 854.119 35.512ZM888.693 99H873.077V48.824H860.917V35.768H873.077V16.056H888.693V35.768H900.981V48.824H888.693V99Z" fill="white"/>
<path fill-rule="evenodd" clip-rule="evenodd" d="M200 100H143.75C143.75 75.838 124.162 56.25 100 56.25C75.8375 56.25 56.25 75.838 56.25 100H0C0 44.7715 44.7715 0 100 0C155.228 0 200 44.7715 200 100Z" fill="url(#paint0_linear_0_1)"/>
<defs>
<linearGradient id="paint0_linear_0_1" x1="100" y1="0" x2="100" y2="100" gradientUnits="userSpaceOnUse">
<stop stop-color="#A7B5FF"/>
<stop offset="1" stop-color="#F3ACFF"/>
</linearGradient>
</defs>
</svg>
