<svg width="57" height="9" viewBox="0 0 57 9" fill="none" xmlns="http://www.w3.org/2000/svg"><path d="m4.5 0 1.53 2.608L9 3.247l-2.025 2.25.306 3.003L4.5 7.283 1.719 8.5l.306-3.003L0 3.247l2.97-.639zm12 0 1.53 2.608 2.97.639-2.025 2.25.306 3.003L16.5 7.283 13.719 8.5l.306-3.003L12 3.247l2.97-.639zm12 0 1.53 2.608 2.97.639-2.025 2.25.306 3.003L28.5 7.283 25.719 8.5l.306-3.003L24 3.247l2.97-.639zm12 0 1.53 2.608 2.97.639-2.025 2.25.306 3.003L40.5 7.283 37.719 8.5l.306-3.003L36 3.247l2.97-.639zm12 0 1.53 2.608 2.97.639-2.025 2.25.306 3.003L52.5 7.283 49.719 8.5l.306-3.003L48 3.247l2.97-.639z" fill="#FFCB45"/></svg>